<svg xmlns="http://www.w3.org/2000/svg" width="128" viewBox="0 0 96 96" height="128" version="1.0"><defs><clipPath id="4782f14857"><path d="M48 0C21.492 0 0 21.492 0 48s21.492 48 48 48 48-21.492 48-48S74.508 0 48 0Zm0 0"/></clipPath><clipPath id="7012bbc18a"><path d="M17 16.64h63v63H17Zm0 0"/></clipPath><linearGradient x1="0" gradientTransform="matrix(.375 0 0 .375 0 0)" y1="128" x2="256" gradientUnits="userSpaceOnUse" y2="128" id="fe0bd263ef"><stop stop-color="#F72585" offset="0"/><stop stop-color="#F62585" offset=".004"/><stop stop-color="#F62585" offset=".008"/><stop stop-color="#F52585" offset=".012"/><stop stop-color="#F42586" offset=".016"/><stop stop-color="#F32486" offset=".02"/><stop stop-color="#F32486" offset=".023"/><stop stop-color="#F22486" offset=".027"/><stop stop-color="#F12486" offset=".031"/><stop stop-color="#F02486" offset=".035"/><stop stop-color="#F02486" offset=".039"/><stop stop-color="#EF2486" offset=".043"/><stop stop-color="#EE2487" offset=".047"/><stop stop-color="#ED2487" offset=".051"/><stop stop-color="#ED2487" offset=".055"/><stop stop-color="#EC2487" offset=".059"/><stop stop-color="#EB2387" offset=".063"/><stop stop-color="#EB2387" offset=".066"/><stop stop-color="#EA2387" offset=".07"/><stop stop-color="#E92387" offset=".074"/><stop stop-color="#E82387" offset=".078"/><stop stop-color="#E82388" offset=".082"/><stop stop-color="#E72388" offset=".086"/><stop stop-color="#E62388" offset=".09"/><stop stop-color="#E52388" offset=".094"/><stop stop-color="#E52388" offset=".098"/><stop stop-color="#E42288" offset=".102"/><stop stop-color="#E32288" offset=".105"/><stop stop-color="#E22288" offset=".109"/><stop stop-color="#E22288" offset=".113"/><stop stop-color="#E12289" offset=".117"/><stop stop-color="#E02289" offset=".121"/><stop stop-color="#DF2289" offset=".125"/><stop stop-color="#DF2289" offset=".129"/><stop stop-color="#DE2289" offset=".133"/><stop stop-color="#DD2289" offset=".137"/><stop stop-color="#DC2189" offset=".141"/><stop stop-color="#DC2189" offset=".145"/><stop stop-color="#DB218A" offset=".148"/><stop stop-color="#DA218A" offset=".152"/><stop stop-color="#DA218A" offset=".156"/><stop stop-color="#D9218A" offset=".16"/><stop stop-color="#D8218A" offset=".164"/><stop stop-color="#D7218A" offset=".168"/><stop stop-color="#D7218A" offset=".172"/><stop stop-color="#D6218A" offset=".176"/><stop stop-color="#D5208A" offset=".18"/><stop stop-color="#D4208B" offset=".184"/><stop stop-color="#D4208B" offset=".188"/><stop stop-color="#D3208B" offset=".191"/><stop stop-color="#D2208B" offset=".195"/><stop stop-color="#D1208B" offset=".199"/><stop stop-color="#D1208B" offset=".203"/><stop stop-color="#D0208B" offset=".207"/><stop stop-color="#CF208B" offset=".211"/><stop stop-color="#CE208C" offset=".215"/><stop stop-color="#CE208C" offset=".219"/><stop stop-color="#CD1F8C" offset=".223"/><stop stop-color="#CC1F8C" offset=".227"/><stop stop-color="#CB1F8C" offset=".23"/><stop stop-color="#CB1F8C" offset=".234"/><stop stop-color="#CA1F8C" offset=".238"/><stop stop-color="#C91F8C" offset=".242"/><stop stop-color="#C91F8C" offset=".246"/><stop stop-color="#C81F8D" offset=".25"/><stop stop-color="#C71F8D" offset=".254"/><stop stop-color="#C61F8D" offset=".258"/><stop stop-color="#C61E8D" offset=".262"/><stop stop-color="#C51E8D" offset=".266"/><stop stop-color="#C41E8D" offset=".27"/><stop stop-color="#C31E8D" offset=".273"/><stop stop-color="#C31E8D" offset=".277"/><stop stop-color="#C21E8D" offset=".281"/><stop stop-color="#C11E8E" offset=".285"/><stop stop-color="#C01E8E" offset=".289"/><stop stop-color="#C01E8E" offset=".293"/><stop stop-color="#BF1E8E" offset=".297"/><stop stop-color="#BE1D8E" offset=".301"/><stop stop-color="#BD1D8E" offset=".305"/><stop stop-color="#BD1D8E" offset=".309"/><stop stop-color="#BC1D8E" offset=".313"/><stop stop-color="#BB1D8F" offset=".316"/><stop stop-color="#BA1D8F" offset=".32"/><stop stop-color="#BA1D8F" offset=".324"/><stop stop-color="#B91D8F" offset=".328"/><stop stop-color="#B81D8F" offset=".332"/><stop stop-color="#B81D8F" offset=".336"/><stop stop-color="#B71C8F" offset=".34"/><stop stop-color="#B61C8F" offset=".344"/><stop stop-color="#B51C8F" offset=".348"/><stop stop-color="#B51C90" offset=".352"/><stop stop-color="#B41C90" offset=".355"/><stop stop-color="#B31C90" offset=".359"/><stop stop-color="#B21C90" offset=".363"/><stop stop-color="#B21C90" offset=".367"/><stop stop-color="#B11C90" offset=".371"/><stop stop-color="#B01C90" offset=".375"/><stop stop-color="#AF1C90" offset=".379"/><stop stop-color="#AF1B91" offset=".383"/><stop stop-color="#AE1B91" offset=".387"/><stop stop-color="#AD1B91" offset=".391"/><stop stop-color="#AC1B91" offset=".395"/><stop stop-color="#AC1B91" offset=".398"/><stop stop-color="#AB1B91" offset=".402"/><stop stop-color="#AA1B91" offset=".406"/><stop stop-color="#A91B91" offset=".41"/><stop stop-color="#A91B91" offset=".414"/><stop stop-color="#A81B92" offset=".418"/><stop stop-color="#A71A92" offset=".422"/><stop stop-color="#A71A92" offset=".426"/><stop stop-color="#A61A92" offset=".43"/><stop stop-color="#A51A92" offset=".434"/><stop stop-color="#A41A92" offset=".438"/><stop stop-color="#A41A92" offset=".441"/><stop stop-color="#A31A92" offset=".445"/><stop stop-color="#A21A93" offset=".449"/><stop stop-color="#A11A93" offset=".453"/><stop stop-color="#A11A93" offset=".457"/><stop stop-color="#A01993" offset=".461"/><stop stop-color="#9F1993" offset=".465"/><stop stop-color="#9E1993" offset=".469"/><stop stop-color="#9E1993" offset=".473"/><stop stop-color="#9D1993" offset=".477"/><stop stop-color="#9C1993" offset=".48"/><stop stop-color="#9B1994" offset=".484"/><stop stop-color="#9B1994" offset=".488"/><stop stop-color="#9A1994" offset=".492"/><stop stop-color="#991994" offset=".496"/><stop stop-color="#981894" offset=".5"/><stop stop-color="#981894" offset=".504"/><stop stop-color="#971894" offset=".508"/><stop stop-color="#961894" offset=".512"/><stop stop-color="#961894" offset=".516"/><stop stop-color="#951895" offset=".52"/><stop stop-color="#941895" offset=".523"/><stop stop-color="#931895" offset=".527"/><stop stop-color="#931895" offset=".531"/><stop stop-color="#921895" offset=".535"/><stop stop-color="#911895" offset=".539"/><stop stop-color="#901795" offset=".543"/><stop stop-color="#901795" offset=".547"/><stop stop-color="#8F1796" offset=".551"/><stop stop-color="#8E1796" offset=".555"/><stop stop-color="#8D1796" offset=".559"/><stop stop-color="#8D1796" offset=".563"/><stop stop-color="#8C1796" offset=".566"/><stop stop-color="#8B1796" offset=".57"/><stop stop-color="#8A1796" offset=".574"/><stop stop-color="#8A1796" offset=".578"/><stop stop-color="#891696" offset=".582"/><stop stop-color="#881697" offset=".586"/><stop stop-color="#871697" offset=".59"/><stop stop-color="#871697" offset=".594"/><stop stop-color="#861697" offset=".598"/><stop stop-color="#851697" offset=".602"/><stop stop-color="#851697" offset=".605"/><stop stop-color="#841697" offset=".609"/><stop stop-color="#831697" offset=".613"/><stop stop-color="#821698" offset=".617"/><stop stop-color="#821598" offset=".621"/><stop stop-color="#811598" offset=".625"/><stop stop-color="#801598" offset=".629"/><stop stop-color="#7F1598" offset=".633"/><stop stop-color="#7F1598" offset=".637"/><stop stop-color="#7E1598" offset=".641"/><stop stop-color="#7D1598" offset=".645"/><stop stop-color="#7C1598" offset=".648"/><stop stop-color="#7C1599" offset=".652"/><stop stop-color="#7B1599" offset=".656"/><stop stop-color="#7A1499" offset=".66"/><stop stop-color="#791499" offset=".664"/><stop stop-color="#791499" offset=".668"/><stop stop-color="#781499" offset=".672"/><stop stop-color="#771499" offset=".676"/><stop stop-color="#761499" offset=".68"/><stop stop-color="#76149A" offset=".684"/><stop stop-color="#75149A" offset=".688"/><stop stop-color="#74149A" offset=".691"/><stop stop-color="#74149A" offset=".695"/><stop stop-color="#73139A" offset=".699"/><stop stop-color="#72139A" offset=".703"/><stop stop-color="#71139A" offset=".707"/><stop stop-color="#71139A" offset=".711"/><stop stop-color="#70139A" offset=".715"/><stop stop-color="#6F139B" offset=".719"/><stop stop-color="#6E139B" offset=".723"/><stop stop-color="#6E139B" offset=".727"/><stop stop-color="#6D139B" offset=".73"/><stop stop-color="#6C139B" offset=".734"/><stop stop-color="#6B139B" offset=".738"/><stop stop-color="#6B129B" offset=".742"/><stop stop-color="#6A129B" offset=".746"/><stop stop-color="#69129B" offset=".75"/><stop stop-color="#68129C" offset=".754"/><stop stop-color="#68129C" offset=".758"/><stop stop-color="#67129C" offset=".762"/><stop stop-color="#66129C" offset=".766"/><stop stop-color="#65129C" offset=".77"/><stop stop-color="#65129C" offset=".773"/><stop stop-color="#64129C" offset=".777"/><stop stop-color="#63119C" offset=".781"/><stop stop-color="#63119D" offset=".785"/><stop stop-color="#62119D" offset=".789"/><stop stop-color="#61119D" offset=".793"/><stop stop-color="#60119D" offset=".797"/><stop stop-color="#60119D" offset=".801"/><stop stop-color="#5F119D" offset=".805"/><stop stop-color="#5E119D" offset=".809"/><stop stop-color="#5D119D" offset=".813"/><stop stop-color="#5D119D" offset=".816"/><stop stop-color="#5C109E" offset=".82"/><stop stop-color="#5B109E" offset=".824"/><stop stop-color="#5A109E" offset=".828"/><stop stop-color="#5A109E" offset=".832"/><stop stop-color="#59109E" offset=".836"/><stop stop-color="#58109E" offset=".84"/><stop stop-color="#57109E" offset=".844"/><stop stop-color="#57109E" offset=".848"/><stop stop-color="#56109F" offset=".852"/><stop stop-color="#55109F" offset=".855"/><stop stop-color="#540F9F" offset=".859"/><stop stop-color="#540F9F" offset=".863"/><stop stop-color="#530F9F" offset=".867"/><stop stop-color="#520F9F" offset=".871"/><stop stop-color="#520F9F" offset=".875"/><stop stop-color="#510F9F" offset=".879"/><stop stop-color="#500F9F" offset=".883"/><stop stop-color="#4F0FA0" offset=".887"/><stop stop-color="#4F0FA0" offset=".891"/><stop stop-color="#4E0FA0" offset=".895"/><stop stop-color="#4D0FA0" offset=".898"/><stop stop-color="#4C0EA0" offset=".902"/><stop stop-color="#4C0EA0" offset=".906"/><stop stop-color="#4B0EA0" offset=".91"/><stop stop-color="#4A0EA0" offset=".914"/><stop stop-color="#490EA0" offset=".918"/><stop stop-color="#490EA1" offset=".922"/><stop stop-color="#480EA1" offset=".926"/><stop stop-color="#470EA1" offset=".93"/><stop stop-color="#460EA1" offset=".934"/><stop stop-color="#460EA1" offset=".938"/><stop stop-color="#450DA1" offset=".941"/><stop stop-color="#440DA1" offset=".945"/><stop stop-color="#430DA1" offset=".949"/><stop stop-color="#430DA2" offset=".953"/><stop stop-color="#420DA2" offset=".957"/><stop stop-color="#410DA2" offset=".961"/><stop stop-color="#410DA2" offset=".965"/><stop stop-color="#400DA2" offset=".969"/><stop stop-color="#3F0DA2" offset=".973"/><stop stop-color="#3E0DA2" offset=".977"/><stop stop-color="#3E0CA2" offset=".98"/><stop stop-color="#3D0CA2" offset=".984"/><stop stop-color="#3C0CA3" offset=".988"/><stop stop-color="#3B0CA3" offset=".992"/><stop stop-color="#3B0CA3" offset=".996"/><stop stop-color="#3A0CA3" offset="1"/></linearGradient></defs><g clip-path="url('#4782f14857')"><path fill="url('#fe0bd263ef')" d="M-9.6-9.6h115.2v115.2H-9.6z"/></g><g clip-path="url('#7012bbc18a')"><path fill="#fff" d="M21.988 24.168c.77-.766 1.938.402 1.168 1.172-1.195 1.191.125 3.453-1.332 3.558-1.605.122-.914-3.648.164-4.73ZM24 70.875c1.879 0 1.879 2.855 0 2.855s-1.879-2.855 0-2.855Zm46.398 0c-1.882 0-1.882 2.855 0 2.855 1.88 0 1.88-2.855 0-2.855ZM42.957 50.594 19.762 71.848c-.414.39-.38.906.066 1.34l3.45 3.457c.34.32.87.3 1.222-.06L45.633 53.52Zm4.125 4.508L25.836 78.266c-1.211 1.062-3 .984-4.16-.204l-3.547-3.546c-1.074-1.075-1.09-3.075.187-4.243L41.512 49.02l-4.684-5.114c-7.207 1.918-16.68-5.558-18.465-13.765-2.515-11.575 10.184-12.801 18.297-4.688 3.524 3.524 6.293 8.95 5.063 13.555l5.359 4.91 6.633-6.078.062-6.695c.012-1.32.532-2.465 1.512-3.34l11.625-10.367c.898-.801 1.945-.563 2.809.265.847.8 1.84 1.735.617 3.137l-6.16 7.055 6.976-6.215a1.914 1.914 0 0 1 2.614.074l-.004.004c.972.926 2.254 1.918.902 3.433l-6.215 6.973 7.055-6.156c.906-.793 1.937-.547 2.789.27.848.8 1.86 1.753.61 3.152L68.542 41.059c-.871.98-2.02 1.5-3.34 1.511l-6.695.063-5.856 6.39 23.434 21.489c1.066 1.215.977 3.027-.211 4.168l-3.543 3.539a3 3 0 0 1-4.238-.188Zm3.992-7.524 6.172-6.734c.207-.227.492-.344.781-.348l7.16-.062a2.287 2.287 0 0 0 1.754-.801l10.254-11.504c.375-.422-.117-.692-.445-.363l-9.516 8.304c-1.23 1.075-1.894.07-2.644-.683a1.488 1.488 0 0 1-.059-2.04l8.356-9.382c.383-.426-.168-.805-.59-.43L63 31.816c-1.23 1.098-1.902.079-2.656-.671a1.494 1.494 0 0 1-.067-2.032l8.325-9.535c.406-.469-.094-.723-.426-.387L56.715 29.406a2.287 2.287 0 0 0-.8 1.754l-.063 7.164c-.004.32-.149.61-.375.801l-6.813 6.242ZM36.246 23.652c-1.262.63-2.219-1.289-.957-1.918a29.386 29.386 0 0 1 24.672-.691c1.293.555.445 2.527-.848 1.973a27.213 27.213 0 0 0-22.867.636Zm37.09 13.578c-.555-1.292 1.414-2.14 1.969-.847a29.31 29.31 0 0 1-2.957 28.476c-.809 1.153-2.563-.082-1.754-1.23a27.194 27.194 0 0 0 2.742-26.399ZM60.984 72.066c1.246-.652 2.239 1.243.993 1.895-9.157 4.793-20.176 4.426-28.97-1-1.198-.738-.073-2.559 1.122-1.82 8.129 5.015 18.402 5.363 26.855.925Zm-35.777-9.851c.738 1.2-1.082 2.32-1.82 1.125-4.528-7.348-5.563-16.305-2.88-24.516.438-1.344 2.477-.676 2.04.66-2.488 7.61-1.535 15.922 2.66 22.73Zm12.766-20.223 31.691 34.59c.43.434.941.36 1.34-.062l3.492-3.493c.313-.355.246-.859-.148-1.23L39.778 40.12c-1.16-1.062 1.167-1.98-.54-6.851-4.05-11.567-21.41-15.704-18.777-3.583 1.637 7.528 10.668 14.098 16.32 11.989.434-.16.91-.02 1.192.316Zm5.656-6.789c-1.324.492-2.07-1.523-.746-2.012a15.833 15.833 0 0 1 9.664-.418c1.36.372.797 2.434-.563 2.063a13.698 13.698 0 0 0-8.355.367Zm17.887 9.16c-.371-1.36 1.691-1.922 2.062-.562a15.797 15.797 0 0 1-1.312 11.652c-.668 1.242-2.555.227-1.887-1.016a13.688 13.688 0 0 0 1.137-10.074ZM51.438 61.27c1.374-.317 1.851 1.773.476 2.09-3.082.703-6.3.476-9.242-.665-1.317-.508-.543-2.504.77-1.996 2.53.98 5.343 1.18 7.995.57Zm-15.786-8.368c.508 1.317-1.488 2.086-1.996.774a15.8 15.8 0 0 1-.867-8.164c.219-1.39 2.332-1.063 2.113.328a13.726 13.726 0 0 0 .75 7.062ZM21.664 31.277c-.379-1.015 1.16-1.59 1.543-.574 1.406 3.766 4.945 7.219 8.727 8.516 1.027.351.492 1.914-.536 1.562-4.246-1.457-8.144-5.27-9.734-9.504Zm0 0"/></g></svg>