<svg xmlns="http://www.w3.org/2000/svg" width="918" viewBox="0 0 688.5 225" height="300" version="1.0"><defs><clipPath id="cfdfdbe959"><path d="M2.895.66h222.183v222.18H2.895Zm0 0"/></clipPath><clipPath id="baa4c109c3"><path d="M113.988.66C52.633.66 2.895 50.398 2.895 111.75c0 61.355 49.738 111.09 111.093 111.09 61.352 0 111.09-49.735 111.09-111.09C225.078 50.398 175.34.66 113.988.66Zm0 0"/></clipPath><clipPath id="9c5d8f5e87"><path d="M43 39.176h144V184H43Zm0 0"/></clipPath><linearGradient x1="0" gradientTransform="matrix(.8679 0 0 .8679 2.896 .66)" y1="128" x2="256" gradientUnits="userSpaceOnUse" y2="128" id="828869d76e"><stop stop-color="#F72585" offset="0"/><stop stop-color="#F62585" offset=".004"/><stop stop-color="#F62585" offset=".008"/><stop stop-color="#F52585" offset=".012"/><stop stop-color="#F42586" offset=".016"/><stop stop-color="#F32486" offset=".02"/><stop stop-color="#F32486" offset=".023"/><stop stop-color="#F22486" offset=".027"/><stop stop-color="#F12486" offset=".031"/><stop stop-color="#F02486" offset=".035"/><stop stop-color="#F02486" offset=".039"/><stop stop-color="#EF2486" offset=".043"/><stop stop-color="#EE2487" offset=".047"/><stop stop-color="#ED2487" offset=".051"/><stop stop-color="#ED2487" offset=".055"/><stop stop-color="#EC2487" offset=".059"/><stop stop-color="#EB2387" offset=".063"/><stop stop-color="#EB2387" offset=".066"/><stop stop-color="#EA2387" offset=".07"/><stop stop-color="#E92387" offset=".074"/><stop stop-color="#E82387" offset=".078"/><stop stop-color="#E82388" offset=".082"/><stop stop-color="#E72388" offset=".086"/><stop stop-color="#E62388" offset=".09"/><stop stop-color="#E52388" offset=".094"/><stop stop-color="#E52388" offset=".098"/><stop stop-color="#E42288" offset=".102"/><stop stop-color="#E32288" offset=".105"/><stop stop-color="#E22288" offset=".109"/><stop stop-color="#E22288" offset=".113"/><stop stop-color="#E12289" offset=".117"/><stop stop-color="#E02289" offset=".121"/><stop stop-color="#DF2289" offset=".125"/><stop stop-color="#DF2289" offset=".129"/><stop stop-color="#DE2289" offset=".133"/><stop stop-color="#DD2289" offset=".137"/><stop stop-color="#DC2189" offset=".141"/><stop stop-color="#DC2189" offset=".145"/><stop stop-color="#DB218A" offset=".148"/><stop stop-color="#DA218A" offset=".152"/><stop stop-color="#DA218A" offset=".156"/><stop stop-color="#D9218A" offset=".16"/><stop stop-color="#D8218A" offset=".164"/><stop stop-color="#D7218A" offset=".168"/><stop stop-color="#D7218A" offset=".172"/><stop stop-color="#D6218A" offset=".176"/><stop stop-color="#D5208A" offset=".18"/><stop stop-color="#D4208B" offset=".184"/><stop stop-color="#D4208B" offset=".188"/><stop stop-color="#D3208B" offset=".191"/><stop stop-color="#D2208B" offset=".195"/><stop stop-color="#D1208B" offset=".199"/><stop stop-color="#D1208B" offset=".203"/><stop stop-color="#D0208B" offset=".207"/><stop stop-color="#CF208B" offset=".211"/><stop stop-color="#CE208C" offset=".215"/><stop stop-color="#CE208C" offset=".219"/><stop stop-color="#CD1F8C" offset=".223"/><stop stop-color="#CC1F8C" offset=".227"/><stop stop-color="#CB1F8C" offset=".23"/><stop stop-color="#CB1F8C" offset=".234"/><stop stop-color="#CA1F8C" offset=".238"/><stop stop-color="#C91F8C" offset=".242"/><stop stop-color="#C91F8C" offset=".246"/><stop stop-color="#C81F8D" offset=".25"/><stop stop-color="#C71F8D" offset=".254"/><stop stop-color="#C61F8D" offset=".258"/><stop stop-color="#C61E8D" offset=".262"/><stop stop-color="#C51E8D" offset=".266"/><stop stop-color="#C41E8D" offset=".27"/><stop stop-color="#C31E8D" offset=".273"/><stop stop-color="#C31E8D" offset=".277"/><stop stop-color="#C21E8D" offset=".281"/><stop stop-color="#C11E8E" offset=".285"/><stop stop-color="#C01E8E" offset=".289"/><stop stop-color="#C01E8E" offset=".293"/><stop stop-color="#BF1E8E" offset=".297"/><stop stop-color="#BE1D8E" offset=".301"/><stop stop-color="#BD1D8E" offset=".305"/><stop stop-color="#BD1D8E" offset=".309"/><stop stop-color="#BC1D8E" offset=".313"/><stop stop-color="#BB1D8F" offset=".316"/><stop stop-color="#BA1D8F" offset=".32"/><stop stop-color="#BA1D8F" offset=".324"/><stop stop-color="#B91D8F" offset=".328"/><stop stop-color="#B81D8F" offset=".332"/><stop stop-color="#B81D8F" offset=".336"/><stop stop-color="#B71C8F" offset=".34"/><stop stop-color="#B61C8F" offset=".344"/><stop stop-color="#B51C8F" offset=".348"/><stop stop-color="#B51C90" offset=".352"/><stop stop-color="#B41C90" offset=".355"/><stop stop-color="#B31C90" offset=".359"/><stop stop-color="#B21C90" offset=".363"/><stop stop-color="#B21C90" offset=".367"/><stop stop-color="#B11C90" offset=".371"/><stop stop-color="#B01C90" offset=".375"/><stop stop-color="#AF1C90" offset=".379"/><stop stop-color="#AF1B91" offset=".383"/><stop stop-color="#AE1B91" offset=".387"/><stop stop-color="#AD1B91" offset=".391"/><stop stop-color="#AC1B91" offset=".395"/><stop stop-color="#AC1B91" offset=".398"/><stop stop-color="#AB1B91" offset=".402"/><stop stop-color="#AA1B91" offset=".406"/><stop stop-color="#A91B91" offset=".41"/><stop stop-color="#A91B91" offset=".414"/><stop stop-color="#A81B92" offset=".418"/><stop stop-color="#A71A92" offset=".422"/><stop stop-color="#A71A92" offset=".426"/><stop stop-color="#A61A92" offset=".43"/><stop stop-color="#A51A92" offset=".434"/><stop stop-color="#A41A92" offset=".438"/><stop stop-color="#A41A92" offset=".441"/><stop stop-color="#A31A92" offset=".445"/><stop stop-color="#A21A93" offset=".449"/><stop stop-color="#A11A93" offset=".453"/><stop stop-color="#A11A93" offset=".457"/><stop stop-color="#A01993" offset=".461"/><stop stop-color="#9F1993" offset=".465"/><stop stop-color="#9E1993" offset=".469"/><stop stop-color="#9E1993" offset=".473"/><stop stop-color="#9D1993" offset=".477"/><stop stop-color="#9C1993" offset=".48"/><stop stop-color="#9B1994" offset=".484"/><stop stop-color="#9B1994" offset=".488"/><stop stop-color="#9A1994" offset=".492"/><stop stop-color="#991994" offset=".496"/><stop stop-color="#981894" offset=".5"/><stop stop-color="#981894" offset=".504"/><stop stop-color="#971894" offset=".508"/><stop stop-color="#961894" offset=".512"/><stop stop-color="#961894" offset=".516"/><stop stop-color="#951895" offset=".52"/><stop stop-color="#941895" offset=".523"/><stop stop-color="#931895" offset=".527"/><stop stop-color="#931895" offset=".531"/><stop stop-color="#921895" offset=".535"/><stop stop-color="#911895" offset=".539"/><stop stop-color="#901795" offset=".543"/><stop stop-color="#901795" offset=".547"/><stop stop-color="#8F1796" offset=".551"/><stop stop-color="#8E1796" offset=".555"/><stop stop-color="#8D1796" offset=".559"/><stop stop-color="#8D1796" offset=".563"/><stop stop-color="#8C1796" offset=".566"/><stop stop-color="#8B1796" offset=".57"/><stop stop-color="#8A1796" offset=".574"/><stop stop-color="#8A1796" offset=".578"/><stop stop-color="#891696" offset=".582"/><stop stop-color="#881697" offset=".586"/><stop stop-color="#871697" offset=".59"/><stop stop-color="#871697" offset=".594"/><stop stop-color="#861697" offset=".598"/><stop stop-color="#851697" offset=".602"/><stop stop-color="#851697" offset=".605"/><stop stop-color="#841697" offset=".609"/><stop stop-color="#831697" offset=".613"/><stop stop-color="#821698" offset=".617"/><stop stop-color="#821598" offset=".621"/><stop stop-color="#811598" offset=".625"/><stop stop-color="#801598" offset=".629"/><stop stop-color="#7F1598" offset=".633"/><stop stop-color="#7F1598" offset=".637"/><stop stop-color="#7E1598" offset=".641"/><stop stop-color="#7D1598" offset=".645"/><stop stop-color="#7C1598" offset=".648"/><stop stop-color="#7C1599" offset=".652"/><stop stop-color="#7B1599" offset=".656"/><stop stop-color="#7A1499" offset=".66"/><stop stop-color="#791499" offset=".664"/><stop stop-color="#791499" offset=".668"/><stop stop-color="#781499" offset=".672"/><stop stop-color="#771499" offset=".676"/><stop stop-color="#761499" offset=".68"/><stop stop-color="#76149A" offset=".684"/><stop stop-color="#75149A" offset=".688"/><stop stop-color="#74149A" offset=".691"/><stop stop-color="#74149A" offset=".695"/><stop stop-color="#73139A" offset=".699"/><stop stop-color="#72139A" offset=".703"/><stop stop-color="#71139A" offset=".707"/><stop stop-color="#71139A" offset=".711"/><stop stop-color="#70139A" offset=".715"/><stop stop-color="#6F139B" offset=".719"/><stop stop-color="#6E139B" offset=".723"/><stop stop-color="#6E139B" offset=".727"/><stop stop-color="#6D139B" offset=".73"/><stop stop-color="#6C139B" offset=".734"/><stop stop-color="#6B139B" offset=".738"/><stop stop-color="#6B129B" offset=".742"/><stop stop-color="#6A129B" offset=".746"/><stop stop-color="#69129B" offset=".75"/><stop stop-color="#68129C" offset=".754"/><stop stop-color="#68129C" offset=".758"/><stop stop-color="#67129C" offset=".762"/><stop stop-color="#66129C" offset=".766"/><stop stop-color="#65129C" offset=".77"/><stop stop-color="#65129C" offset=".773"/><stop stop-color="#64129C" offset=".777"/><stop stop-color="#63119C" offset=".781"/><stop stop-color="#63119D" offset=".785"/><stop stop-color="#62119D" offset=".789"/><stop stop-color="#61119D" offset=".793"/><stop stop-color="#60119D" offset=".797"/><stop stop-color="#60119D" offset=".801"/><stop stop-color="#5F119D" offset=".805"/><stop stop-color="#5E119D" offset=".809"/><stop stop-color="#5D119D" offset=".813"/><stop stop-color="#5D119D" offset=".816"/><stop stop-color="#5C109E" offset=".82"/><stop stop-color="#5B109E" offset=".824"/><stop stop-color="#5A109E" offset=".828"/><stop stop-color="#5A109E" offset=".832"/><stop stop-color="#59109E" offset=".836"/><stop stop-color="#58109E" offset=".84"/><stop stop-color="#57109E" offset=".844"/><stop stop-color="#57109E" offset=".848"/><stop stop-color="#56109F" offset=".852"/><stop stop-color="#55109F" offset=".855"/><stop stop-color="#540F9F" offset=".859"/><stop stop-color="#540F9F" offset=".863"/><stop stop-color="#530F9F" offset=".867"/><stop stop-color="#520F9F" offset=".871"/><stop stop-color="#520F9F" offset=".875"/><stop stop-color="#510F9F" offset=".879"/><stop stop-color="#500F9F" offset=".883"/><stop stop-color="#4F0FA0" offset=".887"/><stop stop-color="#4F0FA0" offset=".891"/><stop stop-color="#4E0FA0" offset=".895"/><stop stop-color="#4D0FA0" offset=".898"/><stop stop-color="#4C0EA0" offset=".902"/><stop stop-color="#4C0EA0" offset=".906"/><stop stop-color="#4B0EA0" offset=".91"/><stop stop-color="#4A0EA0" offset=".914"/><stop stop-color="#490EA0" offset=".918"/><stop stop-color="#490EA1" offset=".922"/><stop stop-color="#480EA1" offset=".926"/><stop stop-color="#470EA1" offset=".93"/><stop stop-color="#460EA1" offset=".934"/><stop stop-color="#460EA1" offset=".938"/><stop stop-color="#450DA1" offset=".941"/><stop stop-color="#440DA1" offset=".945"/><stop stop-color="#430DA1" offset=".949"/><stop stop-color="#430DA2" offset=".953"/><stop stop-color="#420DA2" offset=".957"/><stop stop-color="#410DA2" offset=".961"/><stop stop-color="#410DA2" offset=".965"/><stop stop-color="#400DA2" offset=".969"/><stop stop-color="#3F0DA2" offset=".973"/><stop stop-color="#3E0DA2" offset=".977"/><stop stop-color="#3E0CA2" offset=".98"/><stop stop-color="#3D0CA2" offset=".984"/><stop stop-color="#3C0CA3" offset=".988"/><stop stop-color="#3B0CA3" offset=".992"/><stop stop-color="#3B0CA3" offset=".996"/><stop stop-color="#3A0CA3" offset="1"/></linearGradient></defs><g clip-path="url('#cfdfdbe959')"><g clip-path="url('#baa4c109c3')"><path fill="url('#828869d76e')" d="M2.895.66v222.18h222.183V.66Zm0 0"/></g></g><g clip-path="url('#9c5d8f5e87')"><path fill="#fff" d="M53.781 56.602c1.782-1.778 4.48.925 2.707 2.703-2.765 2.761.29 7.996-3.082 8.242-3.718.277-2.12-8.445.375-10.945Zm4.657 108.105c4.351 0 4.351 6.613 0 6.613-4.352 0-4.352-6.613 0-6.613Zm107.394 0c-4.352 0-4.352 6.613 0 6.613s4.352-6.613 0-6.613Zm-63.516-46.937-53.691 49.19c-.953.903-.875 2.099.152 3.102l7.989 8.004c.785.739 2.011.696 2.828-.136l48.918-53.395Zm9.551 10.425L62.684 181.82c-2.801 2.457-6.946 2.274-9.63-.472l-8.21-8.215c-2.485-2.488-2.516-7.117.437-9.817l53.696-49.195-10.848-11.84c-16.676 4.442-38.61-12.867-42.738-31.86-5.82-26.796 23.57-29.632 42.351-10.847 8.153 8.149 14.563 20.711 11.719 31.371l12.402 11.371 15.356-14.074.144-15.5c.024-3.05 1.227-5.707 3.496-7.73l26.914-23.989c2.082-1.855 4.5-1.308 6.497.61 1.96 1.847 4.261 4.015 1.433 7.258l-14.262 16.332 16.153-14.387c1.726-1.543 4.402-1.465 6.043.176l-.008.004c2.254 2.148 5.215 4.441 2.09 7.949l-14.387 16.144 16.332-14.257c2.098-1.829 4.48-1.262 6.453.628 1.965 1.856 4.301 4.06 1.414 7.301l-23.988 26.91c-2.023 2.274-4.68 3.477-7.73 3.504l-15.504.137-13.555 14.8L179 163.868c2.469 2.817 2.262 7.008-.488 9.649l-8.203 8.195c-2.829 2.594-7.223 2.383-9.809-.438Zm9.238-17.41L135.391 95.2a2.472 2.472 0 0 1 1.804-.804l16.575-.153c1.62-.012 2.98-.629 4.066-1.847l23.734-26.63c.868-.972-.277-1.6-1.035-.843l-22.023 19.223c-2.852 2.492-4.383.164-6.125-1.579-1.282-1.277-1.34-3.37-.133-4.726l19.344-21.719c.882-.984-.387-1.86-1.364-.992l-21.52 19.176c-2.85 2.535-4.413.18-6.155-1.563a3.454 3.454 0 0 1-.153-4.699l19.266-22.066c.95-1.086-.211-1.676-.98-.903L134.16 68.72c-1.219 1.09-1.836 2.441-1.847 4.066l-.153 16.574a2.453 2.453 0 0 1-.867 1.864l-15.77 14.445Zm-34.32-55.379c-2.926 1.457-5.137-2.984-2.215-4.445 17.836-8.89 38.793-9.473 57.106-1.594 2.992 1.285 1.027 5.848-1.961 4.563-16.961-7.301-36.41-6.774-52.93 1.476Zm85.848 31.426c-1.285-2.988 3.273-4.95 4.562-1.96a67.882 67.882 0 0 1-6.847 65.917c-1.875 2.66-5.93-.195-4.059-2.855 12.582-17.86 14.992-41.047 6.344-61.102Zm-28.586 80.637c2.883-1.508 5.18 2.875 2.293 4.386-21.195 11.094-46.7 10.243-67.055-2.316-2.773-1.707-.172-5.926 2.602-4.21 18.808 11.6 42.59 12.41 62.16 2.14ZM61.23 144.664c1.711 2.774-2.503 5.375-4.21 2.602-10.485-17-12.88-37.739-6.668-56.743 1.015-3.113 5.73-1.566 4.718 1.532-5.754 17.61-3.547 36.847 6.16 52.61Zm29.551-46.809 73.36 80.07c.992 1 2.168.829 3.097-.152l8.086-8.082c.719-.816.567-1.984-.347-2.851L94.96 93.527c-2.688-2.46 2.695-4.586-1.254-15.863-9.379-26.77-49.559-36.348-43.46-8.293 3.784 17.426 24.687 32.633 37.773 27.754a2.491 2.491 0 0 1 2.761.73Zm13.09-15.714c-3.066 1.136-4.793-3.524-1.726-4.66 7.144-2.649 14.996-2.977 22.37-.961 3.145.855 1.84 5.632-1.3 4.773a31.64 31.64 0 0 0-19.344.848Zm41.399 21.199c-.852-3.14 3.917-4.445 4.777-1.3 2.48 9.081 1.406 18.71-3.04 26.968-1.542 2.879-5.91.531-4.366-2.348a31.642 31.642 0 0 0 2.629-23.32Zm-23.325 39.137c3.184-.73 4.29 4.101 1.106 4.832a36.572 36.572 0 0 1-21.399-1.536c-3.043-1.175-1.254-5.796 1.785-4.617a31.821 31.821 0 0 0 18.508 1.32Zm-36.539-19.364c1.172 3.04-3.445 4.825-4.62 1.785-2.329-6.02-3-12.492-2-18.894.503-3.227 5.39-2.457 4.89.754-.86 5.508-.278 11.164 1.73 16.355ZM53.027 73.055c-.87-2.352 2.692-3.684 3.57-1.332 3.258 8.718 11.446 16.707 20.2 19.71 2.379.813 1.14 4.43-1.238 3.614-9.829-3.371-18.852-12.188-22.532-21.992Zm0 0"/></g><path d="M296.113 157.51c.125.125.282.054.47-.204v-.28c.257.445.421.894.484 1.343.25 1.02.597 1.848 1.046 2.484.196.383.422.578.672.578l-.672 2.97-1.625 2.968c-.511.445-1.054.766-1.625.953a5.941 5.941 0 0 1-1.921.297c-3.575 0-6.274-1.121-8.094-3.36-1.824-2.23-3.278-4.882-4.36-7.953a568.14 568.14 0 0 1-3.703-11.687 450.81 450.81 0 0 1-3.39-11.781 8.659 8.659 0 0 0-.391-1c-.125-.29-.187-.473-.187-.547-.063 0-.125-.172-.188-.516a4.98 4.98 0 0 0-.297-1.015c-.375-.895-.789-1.899-1.234-3.016a30.606 30.606 0 0 0-1.344-2.922 221.836 221.836 0 0 1-2.828-6.844 270.415 270.415 0 0 0-2.734-6.672c.062-.32.03-.625-.094-.906-.125-.289-.188-.531-.188-.719-.074-.125-.093-.296-.062-.515.039-.227.062-.38.062-.453 0-.188-.07-.375-.203-.563-.125-.195-.25-.39-.375-.578l-.687-.328c-.188-.102-.344-.156-.47-.156-.062 0-.093.015-.093.047 0 .03-.031.046-.094.046-.062.137-.32.235-.765.297-.45.063-.93.125-1.438.188a39.94 39.94 0 0 1 0 3.875 129.978 129.978 0 0 1-.297 4.656c-.062 2.168-.156 3.86-.28 5.078a45.716 45.716 0 0 1-.485 3.453 85.916 85.916 0 0 1-1.156 4.313c-.375 1.281-.727 2.18-1.047 2.687l-.672 2.97c-.125.51-.305.898-.531 1.155-.22.25-.329.344-.329.282 0 0-.03.101-.093.296-.063.188-.196.47-.391.844-.312.774-.664 1.637-1.047 2.594-.387.957-.547 1.66-.484 2.11-.063.57.129 1.05.578 1.437.062.187.125.328.187.422.063.101.13.187.204.25-.075.125-.266.347-.579.672-.324.25-.648.406-.968.468-.313.07-.633.141-.953.203-.387 0-.82.032-1.297.094-.48.063-.977.254-1.485.578-.449.188-1.043.36-1.781.516-.73.164-1.352.25-1.86.25-.511.695-1.245 1.367-2.202 2.016-.325.312-.711.468-1.157.468h-.375c-.449 0-.898-.047-1.343-.14-.45-.094-.735-.274-.86-.532l-.094-.046a.956.956 0 0 1-.203-.141l-.86-.672a2.371 2.371 0 0 1-1.25-1.25c-.25-.887-.21-1.969.11-3.25-.07-.898-.054-1.953.047-3.172.094-1.207.203-2.484.328-3.828.196-.695.328-1.394.39-2.094.063-.707.126-1.285.188-1.734 0-.258.032-.484.094-.672 2.176-7.601 3.692-15.445 4.547-23.531a225.116 225.116 0 0 0 1.297-23.922c-.125-.313-.031-.785.281-1.422.32-.644.63-1.316.922-2.016.29-.707.242-1.222-.14-1.546-.575-.82-.672-1.551-.297-2.188.382-.644.414-1.445.093-2.406-.125-.57-.289-1.238-.484-2-.188-.77-.281-1.348-.281-1.735l-.094-.765a3.364 3.364 0 0 0-.281-.86c-.125-.257-.188-.453-.188-.578-.137-.257-.203-.468-.203-.625a.974.974 0 0 0-.094-.437c0-.383.032-.64.094-.766.195-.187.39-.312.578-.375.32-.32.863-.547 1.625-.672H245.88c.258 0 .469-.03.625-.093.164-.07.66-.172 1.484-.297l2.016-.094h.281c.446 0 .492.195.14.578-.343.387-.452.578-.327.578h.047c.03 0 .078-.035.14-.11a4.367 4.367 0 0 1 1.735-.374c.32.062.609.125.859.187.258.063.484.196.672.391.32.062.738.352 1.25.86.312.324.644.71 1 1.156.351.449.723.93 1.11 1.437.757.887 1.41 1.777 1.952 2.672.551.898.954 1.602 1.204 2.11 0 .199-.016.39-.047.577-.032.188-.016.383.047.579v.953l.296 1.64a.658.658 0 0 0 .282-.343c.062-.157.222-.364.484-.625l.766-1.047c.312-.258.53-.532.656-.813a7.59 7.59 0 0 0 .297-.719c.125-.195.332-.55.625-1.062a5.26 5.26 0 0 1 1.094-1.344c.445-.633.847-1.191 1.203-1.672.351-.476.593-.78.718-.906.32-.508.864-1.164 1.625-1.969.77-.8 1.57-1.597 2.407-2.39.832-.801 1.504-1.395 2.015-1.782.508-.32 1.067-.64 1.672-.953.602-.32 1.13-.613 1.578-.875l.86-.187a13.31 13.31 0 0 1 2.547-.469c.8-.07 1.613-.11 2.437-.11 2.113.587 3.664.97 4.656 1.157.989.187 1.992.605 3.016 1.25.707.574 1.316 1.5 1.828 2.781.445.25.86.57 1.234.953.383.387.801.735 1.25 1.047.383.387.75.805 1.094 1.25.352.45.66.93.922 1.438a24.194 24.194 0 0 1 1.281 3.36 15.43 15.43 0 0 1 .64 3.64c0 1.148-.085 2.343-.25 3.593-.155 1.25-.296 2.32-.421 3.204-.648 1.93-1.64 3.93-2.984 6a35.721 35.721 0 0 1-4.547 5.703c-1.688 1.718-3.399 3.093-5.125 4.125-.961.449-1.918 1.086-2.875 1.906l-1.625 1.156c-1.094.836-1.93 1.477-2.5 1.922-.574.45-.922.86-1.047 1.234.25.063.582.29 1 .672.414.387.625.743.625 1.063 0 .125.078.43.234.906.164.48.313.977.438 1.484.508.637 1.035 1.434 1.578 2.391.539.961 1.004 1.793 1.39 2.5l2.876 6.031c.507.836.957 1.844 1.343 3.032.383 1.18.64 2.12.766 2.828.57 1.531.89 2.297.953 2.297.383.125.676.636.875 1.53-.137 1.024.082 1.821.656 2.391 0-.125.063-.101.188.063.133.156.265.297.39.422.196.324.297.773.297 1.344-.062.25-.062.476 0 .671.063.188.094.313.094.375.125.2.125.297 0 .297s-.187.063-.187.188c.062.387.25.734.562 1.047.133-.063.234.148.297.625.062.48.125.879.187 1.203.125.445.235.86.329 1.234.101.383.25.739.437 1.063.383.832.578 1.597.578 2.297 0 1.601.285 2.597.86 2.984.195.062.328.156.39.281.063.125-.008.25-.203.375-.375.383-.34.578.11.578.374.508.53.957.468 1.344-.25.32-.219.707.094 1.156l.484 1.344c.063.063.094.156.094.281-.125.188.004.41.39.672.126.32.266.625.423.906.164.29.28.598.343.922l.469.953c-.062.063-.027.254.11.579Zm-21.375-88.188-1.437.766c-.063-.063-.434.246-1.11.922a64.875 64.875 0 0 0-1.874 1.953c-.887.449-1.653.933-2.297 1.453-.637.512-1.118.984-1.438 1.422a173.966 173.966 0 0 1-1.578 4.093c-.48 1.18-1.008 2.215-1.578 3.11-.45.7-.899 1.656-1.344 2.875-.062.125-.148.305-.25.531-.094.219-.172.39-.234.516 0 .386-.047.82-.14 1.297-.095.48-.204 1.07-.329 1.765a47.092 47.092 0 0 0-.781 4.75c-.188 1.7-.25 3.406-.188 5.125a26.498 26.498 0 0 0 2.5.953h.703c.227 0 .344-.03.344-.093-.062-.125-.015-.266.14-.422a.854.854 0 0 1 .626-.25H264.957l1.531-1.328 1.438.093c.707 0 1.441-.222 2.203-.672a13.657 13.657 0 0 0 2.25-2.453c.676-.925 1.461-2.125 2.36-3.593 1.019-1.852 1.976-3.926 2.874-6.22a62.52 62.52 0 0 0 2.204-6.718c.695-2.488 1.125-4.66 1.28-6.516.165-1.851-.007-3.097-.515-3.734-.387-.508-.996-.766-1.828-.766-1.023 0-2.36.383-4.016 1.141Zm21.266 87.031.484.578-.28-.187c-.138 0-.204-.133-.204-.39Zm0 0" fill="#fff"/><path d="m319.782 117.244-.484.39c-1.211 1.731-2.743 3.294-4.594 4.688-.387.45-1.012 1.043-1.875 1.781a50.168 50.168 0 0 1-2.547 2.016c-.824.605-1.43 1-1.812 1.187l-2.391 1.157c-.45.511-.742 1.297-.875 2.36a27.996 27.996 0 0 0-.188 3.296c0 .898.032 1.777.094 2.64.07.856.14 1.575.203 2.157.063.512.457.922 1.188 1.234.738.32 1.523.485 2.36.485.956 0 2.296-.434 4.015-1.297 1.726-.864 3.613-2.11 5.656-3.735 2.05-1.625 3.969-3.586 5.75-5.89.133-.32.313-.625.531-.907a5.94 5.94 0 0 0 .532-.828c.312-.507.8-1.113 1.468-1.812a10.793 10.793 0 0 0 1.688-2.297c.894-1.469 1.773-2.89 2.64-4.266.864-1.375 1.52-2.125 1.97-2.25.312-.195.597-.297.859-.297l.468-.187v.094c.133-.063.219-.11.25-.14l.047-.048c.125 0 .219.227.281.672.063.512-.117 1.086-.53 1.719-.407.637-.966 1.402-1.673 2.297-.25.511-.633 1.168-1.14 1.968a21.336 21.336 0 0 1-1.641 2.25l-.469.766c0 .063-.07.227-.203.484l-.281.86-1.922 2.5a25.964 25.964 0 0 1-2.016 2.344c-.761.804-1.367 1.586-1.812 2.343l-.188.188a33.083 33.083 0 0 1-2.359 2.687c-.93.961-1.836 1.727-2.719 2.297l-2.984 2.016a34.308 34.308 0 0 1-3.453 2.11c-1.086.57-2.36.859-3.828.859-1.274 0-2.696-.149-4.266-.438-1.562-.281-2.887-.773-3.969-1.469l-.093-.093c-.836-.325-1.747-.996-2.735-2.016-.992-1.023-1.648-2.586-1.969-4.703h.094a6.327 6.327 0 0 1-.61-1.188 3.27 3.27 0 0 1-.25-1.203v-.906c0-.613.032-1.27.095-1.969 0-.707.015-1.347.046-1.922.032-.57.016-.89-.046-.953 0-1.02.07-2.039.203-3.062l.375-3.078c0-.188.03-.313.093-.375 0-.133.016-.266.047-.391.032-.125.047-.219.047-.281a20.853 20.853 0 0 1 1-3.125 78.81 78.81 0 0 1 1.297-2.922l.672-1.813.39-.578c.508-.77 1.083-1.664 1.72-2.687.644-1.02 1.19-1.692 1.64-2.016l1.234-1.328c.508-.645 1.051-1.27 1.625-1.875a17.062 17.062 0 0 1 1.735-1.578c.32-.32.578-.516.765-.578v.093l.485-.39c.445-.375.875-.625 1.28-.75.415-.133.786-.203 1.11-.203.125 0 .266.015.422.047.164.03.313.046.438.046h.672c.257 0 .644-.156 1.156-.468.25-.133.5-.25.75-.344a2.05 2.05 0 0 1 .687-.14c.188 0 .313.03.375.093.258-.125.5-.187.719-.187h.625c.258 0 .8.046 1.625.14.832.094 1.742.352 2.734.766.989.418 1.899 1.074 2.735 1.969.832.898 1.344 2.171 1.531 3.828 0 1.468-.32 2.875-.953 4.218-.063.262-.29.778-.672 1.547a26.45 26.45 0 0 1-1.39 2.391c-.544.824-1.04 1.492-1.485 2Zm-4.984-5.078-.485.39c-.062.063-.14.196-.234.391a4.295 4.295 0 0 0-.234.563c0 .062-.04.132-.11.203-.062.062-.094.125-.094.187a61.645 61.645 0 0 0-3.296 5.75c-.93 1.856-1.555 3.262-1.875 4.219.382-.195.769-.453 1.156-.766l1.047-.875 2.109-1.718c1.914-1.852 3.547-3.817 4.89-5.891 1.344-2.082 2.048-3.984 2.11-5.703a11.518 11.518 0 0 0-.437-.438 1.316 1.316 0 0 0-.516-.328c-.387.063-.98.512-1.781 1.344a24.066 24.066 0 0 0-2.25 2.672Zm0 0" fill="#fff"/><path d="M353.616 111.697c.062.512-.102.813-.484.906-.375.094-.79.141-1.235.141-.96 0-1.762-.3-2.406-.906a6.28 6.28 0 0 1-1.484-2.157 43.023 43.023 0 0 1-.813-2.015l-.672 1.344-.375 1.343c-.262.45-.539.946-.828 1.485a44.951 44.951 0 0 0-.906 1.86l-2.688 5.858a22.356 22.356 0 0 0-1.484 4.61 21.567 21.567 0 0 0-.422 5.156c.188 1.793.66 3.477 1.422 5.047.77 1.562 1.926 2.344 3.469 2.344.375 0 .754-.16 1.14-.485.258.125.516.188.766.188 1.02 0 2.234-.664 3.64-2 1.407-1.344 2.876-3.004 4.407-4.985 1.539-1.988 2.945-3.91 4.219-5.765l1.062-1.438c.508-.632.953-1.3 1.328-2 .383-.707.77-1.41 1.156-2.109a36.014 36.014 0 0 1 2.5-4.125c.895-1.281 1.66-1.922 2.297-1.922.696 0 1.114.356 1.25 1.063 0 .312-.433 1.414-1.297 3.296-.867 1.887-2.418 4.266-4.656 7.141v-.094l-.86 1.532c-.25.324-.507.632-.765.921-.25.282-.476.586-.672.907l-1.14 1.625-.969 1.156c-.7.824-1.29 1.605-1.766 2.344-.48.73-.976 1.543-1.484 2.437-2.117 2.367-4.117 3.996-6 4.89-1.887.895-3.688 1.345-5.406 1.345a16.482 16.482 0 0 1-7.25-2.438c-2.2-1.375-3.985-3.195-5.36-5.469-1.375-2.27-2.187-4.812-2.437-7.625-.063-1.144.015-2.613.234-4.406.227-1.789.598-3.422 1.11-4.89a42.546 42.546 0 0 1 4.78-9.094c1.977-2.875 4.056-5.223 6.235-7.047 2.176-1.82 4.156-2.735 5.938-2.735 1.093 0 1.91.211 2.453.625.539.418.875.782 1 1.094l1.062-.672c.25-.187.422-.328.516-.422.102-.093.441-.27 1.016-.53.187 0 .644.48 1.375 1.437.738.96 1.238 2.336 1.5 4.125.125 1.406.054 2.48-.204 3.218-.25.73-.539 1.383-.859 1.954-.25.449-.492.945-.719 1.484-.218.543-.297 1.36-.234 2.453Zm0 0" fill="#fff"/><path d="M375.08 115.244v.578c0 .188.035.375.109.563a100.36 100.36 0 0 1-.781 2.218c-.25.7-.508 1.336-.766 1.907-.062.386-.25.867-.562 1.437v.578a54.62 54.62 0 0 0-2.22 7.656l.11.11c.063.25-.039.508-.297.765l-.375.375a44.53 44.53 0 0 0-.828 1.735c-.218.512-.328.992-.328 1.437 0 .762.414 1.243 1.25 1.438.633-.258 1.785-1.125 3.453-2.594a7.768 7.768 0 0 0 1.672-1.297 33.48 33.48 0 0 0 1.485-1.578l.671-.766a77.939 77.939 0 0 0 3.641-4.89 92.8 92.8 0 0 0 3.64-5.703 83.295 83.295 0 0 0 2.97-5.407c.445-.445.925-.671 1.437-.671.32 0 .578.148.766.437.195.281.164.742-.094 1.375.133.2.101.39-.094.578v.094a9.524 9.524 0 0 0-.953 1.531l-.766 1.344a66.565 66.565 0 0 0-2.031 3.453 53.595 53.595 0 0 1-2.375 3.922v-.094l-.297.766v.11l-.578 1.046c-.574.836-1.184 1.7-1.828 2.594a28.641 28.641 0 0 1-2.094 2.578l-.86.969c-.448.437-.882.918-1.296 1.437a9.992 9.992 0 0 1-1.297 1.328l-.484.297h.109c-.648.45-1.273.867-1.875 1.25-.605.375-1.2.696-1.781.953v-.093a6.72 6.72 0 0 1-1.969.625c-.668.093-1.352.14-2.047.14-1.918-.383-3.453-1.226-4.61-2.531-1.148-1.313-1.96-2.863-2.437-4.656-.48-1.79-.718-3.551-.718-5.282 0-.312.015-.609.046-.89.032-.29.047-.567.047-.828v-1.719c.125-.957.282-1.945.469-2.969.195-1.031.426-2.117.688-3.265l1.53-4.891c.571-1.406 1.13-2.797 1.673-4.172a53.483 53.483 0 0 0 1.39-3.969v-.578c.32-1.531.93-2.488 1.828-2.875.313-.258.79-.39 1.438-.39 1.914 0 3.414.836 4.5 2.5 1.082 1.656 1.754 3.32 2.016 4.984.125 1.023-.04 2.203-.485 3.547l-.187.765c0 .125.03.188.093.188l.094.281c.063.137.094.32.094.547v.516c.062.125.094.32.094.578v.578Zm2.312-39.11c.695-.062 1.633.133 2.813.579 1.187.449 2.195 1.023 3.03 1.718.634.512 1.052 1.09 1.25 1.735.063.512.009.976-.155 1.39a4.235 4.235 0 0 1-.72 1.188h.095c-.125.262-.266.555-.422.875a5.376 5.376 0 0 1-.625.953l-1.156 1.906c-.825 1.407-1.446 2.305-1.86 2.688-.418.387-1.012.578-1.781.578-1.274-.125-2.547-.57-3.828-1.344-.637-.57-1.23-1.398-1.781-2.484a7.857 7.857 0 0 1-.813-3.547c-.062-1.031.063-1.879.375-2.547.32-.664.707-1.223 1.156-1.672 1.477-1.344 2.953-2.015 4.422-2.015Zm0 0" fill="#fff"/><path d="m379.882 126.931-.094-.578 1.813-4.5c1.406-3.707 2.425-6.804 3.062-9.297.645-2.488.906-4.25.781-5.28v-.845c0-.32-.039-.613-.109-.875-.062-.957 0-1.8.188-2.53.195-.74.937-1.11 2.218-1.11.895 0 1.836.387 2.828 1.156.989.762 1.641 2.23 1.954 4.406l.578.375c.894.836 1.453 1.684 1.672 2.547.226.867.375 1.903.437 3.11.125.96.125 1.726 0 2.296l1.344-1.625c.832-.894 1.789-1.882 2.875-2.968a17.39 17.39 0 0 1 3.64-2.782 8.54 8.54 0 0 1 4.313-1.156c1.469 0 2.71.387 3.734 1.156a10.317 10.317 0 0 1 2.547 2.735c.664 1.055 1.192 1.996 1.578 2.828l1.922 1.719.094.39c.125.45.219.899.281 1.344.07.45.14.93.203 1.438.125 1.273.086 2.695-.11 4.265a18.66 18.66 0 0 1-1.14 4.547c1.727-.695 3.117-1.508 4.172-2.437 1.05-.926 1.988-2.079 2.813-3.454.832-1.375 1.765-3.05 2.797-5.03l.375-.532c.257-.352.515-.719.765-1.094.258-.383.39-.547.39-.484l.766-.297c.32 0 .547.324.672.969l.094.047c.063.03.094.078.094.14-.063.25-.352.922-.86 2.016a75.733 75.733 0 0 1-1.828 3.594 29.381 29.381 0 0 1-2.203 3.546c-.762 1.055-1.433 1.672-2.015 1.86l-.094.39c-.574.512-.906.813-1 .907-.094.093-.125.14-.094.14s-.039.086-.203.25c-.156.157-.617.524-1.375 1.094a7.098 7.098 0 0 0-1.156.531 9.944 9.944 0 0 1-1.063.532c-.512.187-.828.351-.953.484-.125.125-.32.312-.578.562-.188 1.47-.684 2.875-1.484 4.22-.793 1.343-1.575 2.464-2.344 3.359-1.73 1.851-3.375 3.445-4.938 4.78-1.562 1.345-3.402 2.016-5.515 2.016l-1.72.094c-.323.07-.71.125-1.155.156-.45.032-.899.047-1.344.047-2.68-.648-4.402-1.289-5.172-1.922-.762-.636-1.21-1.464-1.344-2.484-.125-1.406.352-2.633 1.438-3.687 1.094-1.063 2.375-1.989 3.844-2.782 1.468-.8 2.742-1.425 3.828-1.875l1.437-.672h-.094c.25-.187.758-.906 1.532-2.156.77-1.25 1.597-2.797 2.484-4.64a37.984 37.984 0 0 0 2.25-5.891c.613-2.082.828-4.02.64-5.813 0-.062-.038-.125-.109-.187 0-.125-.015-.25-.047-.375a1.465 1.465 0 0 1-.046-.297l-.188-.39c-.25-.376-.555-.817-.906-1.329-.356-.52-.727-.812-1.11-.875-1.148.2-2.648 1.149-4.5 2.844-1.855 1.688-3.71 3.746-5.562 6.172-1.856 2.43-3.387 4.918-4.594 7.469l.188 1.156c.062.387.125.805.187 1.25l.203 1.719-2.11 5.078c.063.71-.054 1.543-.343 2.5a83.953 83.953 0 0 1-.906 2.875 6.61 6.61 0 0 0-.297.906c-.062.29-.156.594-.281.906.125 1.22.054 2.29-.203 3.22a20.82 20.82 0 0 1-.953 2.733l-.672 1.907v.484a25.73 25.73 0 0 0-.907 2.969c-.218.957-.46 1.914-.718 2.875-.512 2.238-1.168 4.285-1.97 6.14-.788 1.852-2.05 3-3.78 3.438l-1.625 1.062c0 .508-.223.766-.672.766-.446 0-1.149-.512-2.11-1.531-.957-1.024-1.5-2.172-1.625-3.453 0-1.469.118-3.055.344-4.75.219-1.688.516-3.461.89-5.313l.485-1.922c.2-.761.375-1.59.531-2.484.157-.898.172-1.855.047-2.875l.282-.672a41.15 41.15 0 0 0 1.015-2.453c.344-.93.453-1.711.328-2.344l1.735-5.36c-.063-.062-.094-.253-.094-.577v-1.625l.562-1.828c.325-.832.602-1.66.829-2.485a7.955 7.955 0 0 0 .234-2.594Zm15.516 13.704c.07.257.203.39.39.39.32 0 .863-.242 1.625-.719a6.658 6.658 0 0 0 1.922-1.78l1.531-2.485c-.836.45-1.875 1.137-3.125 2.062-1.242.918-2.023 1.762-2.343 2.532Zm0 0" fill="#fff"/><path d="m448.217 117.244-.485.39c-1.21 1.731-2.742 3.294-4.593 4.688-.387.45-1.012 1.043-1.875 1.781a50.168 50.168 0 0 1-2.547 2.016c-.824.605-1.43 1-1.813 1.187l-2.39 1.157c-.45.511-.742 1.297-.875 2.36a27.996 27.996 0 0 0-.188 3.296c0 .898.031 1.777.094 2.64.07.856.14 1.575.203 2.157.063.512.457.922 1.188 1.234.738.32 1.523.485 2.359.485.957 0 2.297-.434 4.016-1.297 1.726-.864 3.613-2.11 5.656-3.735 2.05-1.625 3.969-3.586 5.75-5.89.133-.32.312-.625.531-.907a5.94 5.94 0 0 0 .531-.828c.313-.507.801-1.113 1.47-1.812a10.793 10.793 0 0 0 1.687-2.297c.894-1.469 1.773-2.89 2.64-4.266.864-1.375 1.52-2.125 1.969-2.25.312-.195.598-.297.86-.297l.468-.187v.094c.133-.063.219-.11.25-.14l.047-.048c.125 0 .219.227.281.672.063.512-.117 1.086-.531 1.719-.406.637-.965 1.402-1.672 2.297-.25.511-.633 1.168-1.14 1.968a21.336 21.336 0 0 1-1.641 2.25l-.469.766c0 .063-.07.227-.203.484l-.281.86-1.922 2.5a25.964 25.964 0 0 1-2.016 2.344c-.761.804-1.367 1.586-1.812 2.343l-.188.188a33.083 33.083 0 0 1-2.36 2.687c-.929.961-1.835 1.727-2.718 2.297l-2.984 2.016a34.308 34.308 0 0 1-3.453 2.11c-1.086.57-2.36.859-3.829.859-1.273 0-2.695-.149-4.265-.438-1.563-.281-2.887-.773-3.969-1.469l-.094-.093c-.836-.325-1.746-.996-2.734-2.016-.992-1.023-1.648-2.586-1.969-4.703h.094a6.327 6.327 0 0 1-.61-1.188 3.27 3.27 0 0 1-.25-1.203v-.906c0-.613.032-1.27.094-1.969 0-.707.016-1.347.047-1.922.031-.57.016-.89-.047-.953 0-1.02.07-2.039.203-3.062l.375-3.078c0-.188.032-.313.094-.375 0-.133.016-.266.047-.391s.047-.219.047-.281a20.853 20.853 0 0 1 1-3.125 78.81 78.81 0 0 1 1.297-2.922l.672-1.813.39-.578c.508-.77 1.082-1.664 1.72-2.687.644-1.02 1.19-1.692 1.64-2.016l1.234-1.328c.508-.645 1.05-1.27 1.625-1.875a17.062 17.062 0 0 1 1.734-1.578c.32-.32.579-.516.766-.578v.093l.484-.39c.446-.375.875-.625 1.282-.75.414-.133.785-.203 1.11-.203.124 0 .265.015.421.047.164.03.312.046.437.046h.672c.258 0 .645-.156 1.157-.468.25-.133.5-.25.75-.344a2.05 2.05 0 0 1 .687-.14c.188 0 .313.03.375.093.258-.125.5-.187.719-.187h.625c.258 0 .8.046 1.625.14.832.094 1.742.352 2.734.766.989.418 1.899 1.074 2.735 1.969.832.898 1.343 2.171 1.53 3.828 0 1.468-.32 2.875-.952 4.218-.063.262-.29.778-.672 1.547a26.45 26.45 0 0 1-1.39 2.391c-.544.824-1.04 1.492-1.485 2Zm-4.985-5.078-.484.39c-.062.063-.14.196-.234.391a4.295 4.295 0 0 0-.235.563c0 .062-.039.132-.109.203-.063.062-.094.125-.094.187a61.645 61.645 0 0 0-3.297 5.75c-.93 1.856-1.554 3.262-1.875 4.219.383-.195.77-.453 1.157-.766l1.046-.875 2.11-1.718c1.914-1.852 3.547-3.817 4.89-5.891 1.344-2.082 2.047-3.984 2.11-5.703a11.518 11.518 0 0 0-.438-.438 1.316 1.316 0 0 0-.515-.328c-.387.063-.98.512-1.782 1.344a24.066 24.066 0 0 0-2.25 2.672Zm0 0" fill="#fff"/><path d="m512.238 60.025 2.782 2.985c.507.511.863.953 1.062 1.328.25.386.375.68.375.875l.094.093v.047c0 .032.031.11.094.235v.39l.093-.047a.509.509 0 0 1 .203-.046c.063 0 .094.015.094.046v.047l.281 1.235c.063.449.157.773.282.968.133.188.234.415.297.672v.375c.125.137.187.235.187.297.133.125.203.219.203.281.125.125.25.32.375.579v.375c.063.136.094.296.094.484 0 .062-.016.11-.047.14l-.047.047.094.047a.164.164 0 0 1 .094.157c.133.25.164.445.093.578-.062.125-.058.539.016 1.234.25.637.484 1.309.703 2.016.227.699.375 1.37.438 2.015.195.637.297 1.371.297 2.203v2.157c0 .418-.04.883-.11 1.39v8.719c0 1.219.035 2.18.11 2.875-.075.637-.172 1.34-.297 2.11a31.541 31.541 0 0 0-.282 2.203c0 .187-.015.382-.046.578-.032.187-.016.383.046.578 0 .187-.062.414-.187.672v.86l-.781 2.874c-.125.574-.274 1.23-.438 1.969-.156.73-.297 1.512-.422 2.344-.062.636-.18 1.324-.343 2.062-.157.73-.329 1.45-.516 2.156-.262.512-.5 1.121-.719 1.828-.219.7-.398 1.399-.531 2.094l-.188.485c0 .511-.308 1.246-.921 2.203-.606.96-.97 1.57-1.094 1.828-.063.125-.156.305-.281.531l-.188.328-.11.281c-.062 0-.093.063-.093.188-.063.262-.156.539-.281.828-.125.281-.29.586-.485.906-.25.836-.715 2.133-1.39 3.891-.668 1.75-1.356 3.23-2.063 4.437l-.375.485c-.199.45-.39.851-.578 1.203-.187.355-.32.625-.39.812l-.47.86-3.062 3.453a79.51 79.51 0 0 1 5.016.953c1.695.383 3.41.8 5.14 1.25 5.176.32 9.665.848 13.47 1.578 3.8.739 7.155 1.649 10.062 2.735 2.906 1.082 5.539 2.296 7.906 3.64 2.363 1.344 4.66 2.75 6.89 4.219 3.07.895 5.485 2.062 7.235 3.5 1.758 1.437 3.086 2.922 3.984 4.453.895 1.531 1.535 2.938 1.922 4.219a657.836 657.836 0 0 1-6.672 4.89c-1.5 1.083-2.601 1.625-3.297 1.625-.648 0-1.132-.417-1.453-1.25-.312-.824-.726-2.039-1.234-3.64-.387-1.149-1.383-2.344-2.984-3.594-1.594-1.242-3.559-2.5-5.891-3.781a206.17 206.17 0 0 0-7.328-3.844 224.475 224.475 0 0 1-7.188-3.734c-4.086-2.168-8.125-3.89-12.125-5.172-3.992-1.274-8.414-2.516-13.265-3.735-.2-.062-.36-.109-.485-.14a2.07 2.07 0 0 0-.484-.047c-.063 0-.172-.07-.328-.203-.156-.125-.266-.156-.328-.094-.325 0-.664-.016-1.016-.047a11.432 11.432 0 0 0-1-.047l-1.531 1.438c-.324.508-.793.957-1.406 1.344-.606.382-1.164.738-1.672 1.062h-.047c-.031 0-.078-.039-.14-.11l-.188.391-2.016 1.828c-.96.82-1.793 1.375-2.5 1.657-.7.289-1.656.597-2.875.922a29.21 29.21 0 0 1-1.14.421c-.45.165-.899.282-1.344.344-.262.063-.57.094-.922.094h-1a13.95 13.95 0 0 1-2.672-.281c-.45-.063-.867-.125-1.25-.188-.387-.062-.578-.164-.578-.297a21.43 21.43 0 0 1-2.875-.625 12.519 12.519 0 0 1-2.875-1.187c-2.688-1.024-5.07-2.828-7.14-5.422-2.075-2.586-3.782-5.727-5.126-9.438-.262-.445-.484-1.054-.672-1.828l-.859-2.39a49.91 49.91 0 0 1-1.453-7.188c-.313-2.488-.531-4.789-.656-6.906v-.75c0-.258.03-.52.093-.781 0-.758.032-1.54.094-2.344.063-.8.125-1.613.188-2.438 0-3.968.414-8.14 1.25-12.515a63.84 63.84 0 0 1 3.78-12.64c1.696-4.063 3.852-7.563 6.47-10.5.382-.063.718-.11 1-.141.289-.04.597-.063.921-.063.508 0 .922.055 1.235.156.32.094.613.141.875.141.125 0 .219-.031.281-.094l.297-.297c.062-.125.11-.25.14-.375.032-.132.079-.265.141-.39.707-2.102 1.473-3.758 2.297-4.969.832-1.219 2.047-2.598 3.64-4.14 0-.313.067-.723.204-1.235 0-.063.031-.129.094-.203l.484-1.719c.125-.695.266-1.285.422-1.766.156-.476.363-.94.625-1.39.77-1.156 1.613-2.004 2.531-2.547a79.479 79.479 0 0 0 2.453-1.484c.446-.125.735-.286.86-.485.57-.312 1.32-.613 2.25-.906.925-.29 1.804-.469 2.64-.531.188 0 .39-.016.61-.047.226-.031.441-.047.64-.047h.61c.226 0 .472.031.734.094.312.062.629.148.953.25.32.093.61.14.86.14l2.296.282c1.22.136 2.274.367 3.172.687.895.313 1.469.695 1.719 1.14v.188c1.727.188 3.102.508 4.125.953l1.25.875a5.86 5.86 0 0 1 1.281 1.282c.352.48.754.945 1.203 1.39Zm3.735 19.36c-.063-.57-.11-1.192-.14-1.86a13.427 13.427 0 0 0-.235-1.969c-.063-.832-.196-1.472-.39-1.921-.188-.446-.282-.797-.282-1.047v-.094c-.125-.57-.305-1.32-.531-2.25a14.127 14.127 0 0 0-.907-2.64l-.859-1.532c-.137-.258-.266-.453-.39-.578-.126-.125-.25-.254-.376-.39-.511-.696-.945-1.126-1.297-1.282-.355-.164-.593-.473-.718-.922h.093c-.386-.57-1.09-1.113-2.109-1.625a56.716 56.716 0 0 0-3.125-1.437c-1.055-.446-1.797-.832-2.234-1.157a1.725 1.725 0 0 1-.157-.328c-.03-.093-.109-.172-.234-.234h-.094c-.125-.063-.32-.094-.578-.094-.449 0-.836.125-1.156.375l-.188.188c-.324.324-.546.617-.671.875-1.024.125-2.282.652-3.782 1.578-1.5.93-2.539 1.902-3.109 2.922-.074.25-.234.57-.484.953l-1.438 2.875c-.45.96-.898 2.031-1.344 3.219a14.089 14.089 0 0 0-.859 3.593 21.37 21.37 0 0 0-.047 2.485c.031.898.11 1.984.234 3.265 0 .063.016.18.047.344.032.156.047.266.047.328v.281c0 .063.031.165.094.297.062.125.094.25.094.375 0 .262-.063.516-.188.766-.125-.063-.304-.203-.531-.422-.219-.226-.39-.375-.516-.437l-.484 1.156.187-.11-.671 2.594c-.125.45-.235 1.074-.329 1.875-.093.793-.242 1.352-.437 1.672-.25.063-.57-.062-.953-.375-.387-.32-.672-.453-.86-.39a.68.68 0 0 1-.203.14c-.062.031-.125.11-.187.234 0 .2.16.649.484 1.344 0 .137-.062.203-.187.203 0 .063-.04.125-.11.188-.062.062-.093.156-.093.281l-.094.297h-.094c-.25.312-.539.918-.86 1.812a43.003 43.003 0 0 0-.874 2.688l-.563 2.016-1.156 4.125c-.125.25-.29.664-.484 1.234-.188.574-.313 1.34-.375 2.297-.063 1.094 0 1.836.187 2.219.063 0 .094.156.094.468 0 .512-.031 1.059-.094 1.641a12.44 12.44 0 0 1-.281 1.625l-.39 1.437c-.376 1.594-.563 3.063-.563 4.407 0 .187.062.304.187.343.125.032.188.141.188.329 0 .187-.086.445-.25.765-.157.324-.235.867-.235 1.625 0 .836.047 1.762.141 2.781a88.69 88.69 0 0 1 .25 2.97c.062.062.094.195.094.39l.187 1.625c.508 3.71 1.25 6.555 2.219 8.531l.469 1.156c.508-.062.941-.093 1.297-.093h.906c.644 0 1.047.03 1.203.093.156.063.426.125.812.188.383.062 1.18.094 2.391.094h.968c1.47.125 3.063.304 4.782.53 1.727.22 3.52.493 5.375.813a33.1 33.1 0 0 0 1.438-2.39c.445-.832.894-1.664 1.343-2.5l1.922-4.125a4.66 4.66 0 0 0 .75-.953c.196-.32.36-.61.485-.86l.765-.969.672-1.328c0 .063.016.11.047.141.031.031.047.11.047.234l.297-.484c.508-1.082 1.05-2.29 1.625-3.625a32.834 32.834 0 0 0 1.437-4.125l.578-2.11 1.047-4.609c0-.187.035-.312.11-.375v-.281c0-.195.03-.297.093-.297l.094-.094.672-2.875c.383-1.406.75-2.906 1.094-4.5a50.74 50.74 0 0 0 .812-4.703c.32-1.406.61-2.726.86-3.969a24.98 24.98 0 0 0 .484-3.89l.094-1.344v-.187c.07-.508.11-1.004.11-1.485v-7.328c0-.195-.04-.426-.11-.687Zm-30.469 65.28c.383.446.988.895 1.812 1.345.832.445 1.567.671 2.204.671.07 0 .234-.054.484-.156.258-.094.484-.14.672-.14l.047.046c.031.032.078.047.14.047.508-.062 1.035-.257 1.578-.578a22.72 22.72 0 0 0 1.782-1.14c.32-.2.656-.391 1-.579.351-.187.66-.414.922-.671l.28-.485-3.452-.375a30.09 30.09 0 0 0-3.25-.187 21.56 21.56 0 0 1-2.969-.203 59.83 59.83 0 0 1-2.984-.47l1.062 1.626c.125.125.25.316.375.578v.047c0 .031.035.078.11.14 0 .063.062.223.187.485Zm0 0" fill="#fff"/><path d="M528.437 106.619c-.125-.445.13-.672.766-.672 1.406 0 2.332.227 2.781.672.446.437.832.98 1.156 1.625h-.093c.25.45.515.883.797 1.297.289.406.757.773 1.406 1.094 1.531.773 2.504 1.765 2.922 2.984.414 1.21.656 2.133.718 2.766l-.39 1.343a74.396 74.396 0 0 0-.906 3.22 22.929 22.929 0 0 0-.625 3.593c-.25.887-.555 1.828-.907 2.828-.355.992-.695 1.93-1.015 2.812a164.385 164.385 0 0 0-1.578 4.61c-.48 1.469-.688 2.46-.625 2.969.07.449.203.703.39.765.77-.508 1.852-1.656 3.25-3.437 1.406-1.79 2.922-3.93 4.547-6.422a103.43 103.43 0 0 0 4.375-7.297l.375-.766a52.229 52.229 0 0 0 1.828-3.297c.633-1.25.922-2.257.86-3.03-.063-.063-.094-.22-.094-.47v-.39c.32-.695.625-1.492.906-2.39.29-.895.566-1.727.828-2.5.313-1.02.61-1.864.89-2.532.29-.676.63-1.016 1.016-1.016.895 0 1.946.516 3.157 1.547 1.218 1.024 1.89 2.453 2.015 4.297.133.586.133 1.29 0 2.11.895.773 1.47 1.367 1.72 1.78.257.419.425.977.5 1.673-.2 1.086-.43 2.218-.688 3.406-.25 1.18-.54 2.344-.86 3.5l-.281 1.14.094 1.735c-.063.25-.196.57-.39.953l-.563 1.156h.093a28.827 28.827 0 0 0-1.062 2.344c-.313.805-.5 1.46-.563 1.969.063.125.11.218.14.281a.71.71 0 0 1 .048.297c0 .375-.031.664-.094.86v.187c-1.094 2.304-1.703 3.996-1.828 5.078.062.062.14.164.234.297.102.125.188.218.25.281.508-.063 1.258-.586 2.25-1.578.989-.988 2.07-2.203 3.25-3.64a66.843 66.843 0 0 0 3.313-4.36l.86-1.64a67.705 67.705 0 0 0 1.921-3.11c.57-.988 1.18-1.992 1.828-3.016h-.094l.282-.765c.25-.707.566-1.57.953-2.594.383-1.02.847-1.926 1.39-2.719.54-.8 1.102-1.203 1.688-1.203.57 0 .922.352 1.047 1.047.062.262-.031.68-.281 1.25h.093c0 .062-.195.351-.578.86a83.628 83.628 0 0 0-.969 1.968c-.375.793-.53 1.445-.468 1.953-.262.649-.633 1.371-1.11 2.172a30.389 30.389 0 0 1-1.578 2.344 8.336 8.336 0 0 1-.531 1.625 10.954 10.954 0 0 1-.813 1.531l-3.828 5.375c-.062.25-.148.445-.25.578a3.52 3.52 0 0 1-.328.375l-.297.297c-.125.125-.218.25-.28.375a11.107 11.107 0 0 1-2.97 3.406c-1.21.926-2.39 1.645-3.547 2.156-1.148.508-2.007.766-2.578.766-.261 0-.476-.016-.64-.047a4.334 4.334 0 0 1-.516-.14h-.187c-1.73-.262-3.137-1.211-4.22-2.844-1.085-1.625-1.694-3.266-1.827-4.922-.125-.957-.094-1.79.093-2.5-.187-.125-.218-.488-.093-1.094.133-.613.265-1.3.39-2.062.125-.895.25-1.723.375-2.485.133-.77.164-1.156.094-1.156-.062-.32-.32-.129-.766.578-.449.7-.859 1.367-1.234 2l-.766 1.344a5.488 5.488 0 0 0-.687 1.11 9.324 9.324 0 0 0-.469 1.296c-.125.438-.32.95-.578 1.531a4.334 4.334 0 0 1-1.14 1.532 36.578 36.578 0 0 1-4.516 4.984c-1.656 1.531-3.219 2.297-4.688 2.297-1.156 0-2.36-.45-3.61-1.344-1.241-.898-1.952-2.363-2.14-4.406 0-.383.016-.816.047-1.297.031-.476.11-1.004.235-1.578-.387-.633-.641-1.367-.766-2.203l-.766-5.172.953-2.313c.133-.312.297-.66.485-1.046.187-.383.312-.77.375-1.157 0-.375-.031-.77-.094-1.187a8.074 8.074 0 0 1-.094-1.203c.32-1.282.64-2.207.953-2.782.32-.57.582-1.5.782-2.78l.28-2.782c.063-.313.142-.676.235-1.094.102-.414.22-.847.344-1.297.125-.382.219-.75.281-1.093.063-.352.094-.63.094-.829v-.093c-.062-.063-.094-.219-.094-.469Zm0 0" fill="#fff"/><path d="m592.275 117.244-.485.39c-1.21 1.731-2.742 3.294-4.593 4.688-.387.45-1.012 1.043-1.875 1.781a50.168 50.168 0 0 1-2.547 2.016c-.824.605-1.43 1-1.813 1.187l-2.39 1.157c-.45.511-.742 1.297-.875 2.36a27.996 27.996 0 0 0-.188 3.296c0 .898.031 1.777.094 2.64.07.856.14 1.575.203 2.157.063.512.457.922 1.188 1.234.738.32 1.523.485 2.359.485.957 0 2.297-.434 4.016-1.297 1.726-.864 3.613-2.11 5.656-3.735 2.05-1.625 3.969-3.586 5.75-5.89.133-.32.312-.625.531-.907a5.94 5.94 0 0 0 .531-.828c.313-.507.801-1.113 1.47-1.812a10.793 10.793 0 0 0 1.687-2.297c.894-1.469 1.773-2.89 2.64-4.266.863-1.375 1.52-2.125 1.969-2.25.312-.195.598-.297.86-.297l.468-.187v.094c.133-.063.219-.11.25-.14l.047-.048c.125 0 .219.227.281.672.063.512-.117 1.086-.531 1.719-.406.637-.965 1.402-1.672 2.297-.25.511-.633 1.168-1.14 1.968a21.336 21.336 0 0 1-1.641 2.25l-.469.766c0 .063-.07.227-.203.484l-.281.86-1.922 2.5a25.964 25.964 0 0 1-2.016 2.344c-.762.804-1.367 1.586-1.812 2.343l-.188.188a33.083 33.083 0 0 1-2.36 2.687c-.929.961-1.835 1.727-2.718 2.297l-2.984 2.016a34.308 34.308 0 0 1-3.453 2.11c-1.086.57-2.36.859-3.829.859-1.273 0-2.695-.149-4.265-.438-1.563-.281-2.887-.773-3.969-1.469l-.094-.093c-.836-.325-1.746-.996-2.734-2.016-.992-1.023-1.648-2.586-1.969-4.703h.094a6.327 6.327 0 0 1-.61-1.188 3.27 3.27 0 0 1-.25-1.203v-.906c0-.613.032-1.27.094-1.969 0-.707.016-1.347.047-1.922.031-.57.016-.89-.047-.953 0-1.02.07-2.039.203-3.062l.375-3.078c0-.188.032-.313.094-.375 0-.133.016-.266.047-.391s.047-.219.047-.281a20.853 20.853 0 0 1 1-3.125 78.81 78.81 0 0 1 1.297-2.922l.672-1.813.39-.578c.508-.77 1.082-1.664 1.72-2.687.644-1.02 1.19-1.692 1.64-2.016l1.234-1.328c.508-.645 1.05-1.27 1.625-1.875a17.062 17.062 0 0 1 1.734-1.578c.32-.32.579-.516.766-.578v.093l.484-.39c.446-.375.875-.625 1.282-.75.414-.133.785-.203 1.11-.203.124 0 .265.015.42.047.165.03.313.046.438.046h.672c.258 0 .645-.156 1.157-.468.25-.133.5-.25.75-.344a2.05 2.05 0 0 1 .687-.14c.188 0 .313.03.375.093.258-.125.5-.187.719-.187h.625c.258 0 .8.046 1.625.14.832.094 1.742.352 2.734.766.988.418 1.899 1.074 2.735 1.969.832.898 1.343 2.171 1.53 3.828 0 1.468-.32 2.875-.952 4.218-.063.262-.29.778-.672 1.547a26.45 26.45 0 0 1-1.39 2.391c-.544.824-1.04 1.492-1.485 2Zm-4.985-5.078-.484.39c-.062.063-.14.196-.234.391a4.295 4.295 0 0 0-.235.563c0 .062-.039.132-.11.203-.062.062-.093.125-.093.187a61.645 61.645 0 0 0-3.297 5.75c-.93 1.856-1.554 3.262-1.875 4.219.383-.195.77-.453 1.157-.766l1.046-.875 2.11-1.718c1.914-1.852 3.547-3.817 4.89-5.891 1.344-2.082 2.047-3.984 2.11-5.703a11.518 11.518 0 0 0-.438-.438 1.316 1.316 0 0 0-.515-.328c-.387.063-.98.512-1.782 1.344a24.066 24.066 0 0 0-2.25 2.672Zm0 0" fill="#fff"/><path d="M612.593 141.978c-1.086 0-2.043-.226-2.875-.672-.062 0-.226-.062-.484-.187h-.281c-.575 0-1.262-.148-2.063-.438a37.529 37.529 0 0 1-2.531-1l-.11-.093c-1.718-.832-2.71-2.145-2.968-3.938-.125-.894.082-1.738.625-2.531a5.718 5.718 0 0 1 2.062-1.875c.77-.707 2-1.3 3.688-1.781 1.695-.477 3.086-.719 4.172-.719.632 0 1.05.07 1.25.203.507-.32.796-.8.859-1.437 0-.063.016-.125.047-.188a.509.509 0 0 0 .047-.203c.257-.508.351-.926.28-1.25 0-.508.099-1.05.298-1.625.125-.445.219-.91.281-1.39.063-.477 0-.973-.187-1.485l.578-4.313a3.01 3.01 0 0 1-.344-1.14c-.031-.383-.078-.77-.14-1.156 0-.77-.165-1.504-.485-2.204a13.307 13.307 0 0 0-.281-1.53c-.125-.509-.352-1.055-.672-1.641-.125-.125-.29-.473-.485-1.047-.187.062-.523.511-1 1.343-.48.836-1.07 1.887-1.765 3.157a177.043 177.043 0 0 0-2.735 4.797c-.992 1.793-2.03 3.324-3.125 4.593-.125.137-.218.203-.28.203-.263 0-.391-.46-.391-1.39 0-.926.222-1.805.671-2.64.196-.321.614-1.087 1.25-2.298a570.354 570.354 0 0 0 2.11-4.03c.77-1.47 1.472-2.852 2.11-4.157.632-1.313 1.05-2.227 1.25-2.75l-.579-10.735c.125-.507.41-1.066.86-1.671.445-.602.894-1.16 1.343-1.672.32-.383.625-.785.906-1.203.29-.414.5-.782.625-1.094l.391-.39c1.207-1.22 2.035-1.829 2.484-1.829.383 0 .801.195 1.25.578l.391.297c.313.188.66.399 1.047.625.383.219.8.524 1.25.906.57.637 1.129 1.34 1.672 2.11.539.761.91 1.59 1.11 2.484l.28 1.156c.063.188.125.399.188.625.062.22.129.493.203.813.125.637-.086 1.418-.625 2.344-.543.93-1.168 1.84-1.875 2.734a27.89 27.89 0 0 0-1.11 1.578c-.343.543-.617 1.04-.812 1.484.383.512.895 1.438 1.531 2.782a102 102 0 0 1 1.829 4.031c.57 1.344.957 2.336 1.156 2.969l1.234 1.156 1.063 2.875c.32.25.445.445.375.578l-.282.563c-.187.199-.218.39-.093.578l.28.953c0 .324.067.742.204 1.25.188 1.023.188 1.726 0 2.11a5.35 5.35 0 0 1-.344.874 5.376 5.376 0 0 1-.625.953c-.25.313-.476.68-.672 1.094-.187.418-.312.82-.375 1.203l2.016-.672a5.716 5.716 0 0 0 1.625-.625c.508-.289.957-.562 1.344-.812h-.094l.281-.188c1.852-1.28 3.532-2.863 5.032-4.75a35.358 35.358 0 0 0 3.78-5.797c.384-.382.77-.578 1.157-.578.957 0 1.273.641.953 1.922 0 .25-.133.555-.39.906-.25.356-.57.79-.954 1.297-.449.836-.945 1.684-1.484 2.547-.543.856-1.195 1.7-1.953 2.531l-.578 1.047c-.711.711-1.559 1.45-2.547 2.22-.992.76-2.156 1.495-3.5 2.202l-.672.281c-.375.188-.805.383-1.281.579-.48.187-.977.343-1.485.468a5.99 5.99 0 0 0-.734.344 4.374 4.374 0 0 1-.703.328h-1.063c-.062 1.219-.386 2.453-.968 3.703a62.865 62.865 0 0 1-1.422 2.922c-.2.25-.492.492-.875.719-.375.219-.758.422-1.14.61l-.86.577c-.512.446-1.453.864-2.828 1.25-1.375.383-2.48.61-3.313.672Zm-8.14-6.422c-.063.387.16.758.671 1.11a2.999 2.999 0 0 0 1.72.515c1.468 0 2.71-.539 3.734-1.625 1.019-1.082 1.66-2.296 1.921-3.64-.062-.125-.656-.055-1.78.203-1.118.25-2.298.664-3.548 1.234-1.242.575-2.148 1.309-2.718 2.203Zm0 0" fill="#fff"/><path d="M661.001 78.619v.297c-.387 1.656-.82 3.398-1.297 5.219-.48 1.824-1.039 3.789-1.672 5.89l7.657.39c.32 0 .578-.03.765-.093h1.063c5.3.512 9.164 1.649 11.593 3.406 2.426 1.75 3.739 3.328 3.938 4.735.125.449.055.758-.203.922-.25.156-.54.234-.86.234H680.641c-.124-.77-.874-1.504-2.25-2.203-1.374-.707-3.105-1.332-5.187-1.875a47.051 47.051 0 0 0-6.656-1.203c-.375 0-.664-.032-.86-.094h-.468l-8.25-.375c-.125.824-.258 1.637-.39 2.437-.126.805-.25 1.622-.376 2.454a81.801 81.801 0 0 1-.719 3.921 35.818 35.818 0 0 1-1 3.829l.188 2.203-2.594 7.765a197.698 197.698 0 0 0-2.828 8.782c-.793 2.71-1.094 4.898-.906 6.562 0 .7.16 1.211.484 1.531.57-.257 1.352-.832 2.344-1.718.988-.895 2.039-1.93 3.156-3.11a64.78 64.78 0 0 0 3.031-3.422c.25-.312.536-.644.86-1 .32-.351.61-.687.86-1a100.32 100.32 0 0 0 2.296-2.968c.77-1.032 1.379-2.024 1.828-2.985l.469-.953v.094c.383-.77.941-1.82 1.672-3.156a75.33 75.33 0 0 1 2.156-3.688c.707-1.125 1.223-1.687 1.547-1.687.57 0 .86.289.86.859.062.2.03.492-.094.875v-.11l-.094.11c.125.187.187.445.187.766-.187 1.273-1.133 3.414-2.828 6.421-1.687 3-3.969 6.29-6.844 9.86l-3.453 4.312a51.575 51.575 0 0 1-5 4.891c-1.718 1.469-3.215 2.203-4.484 2.203-1.406 0-2.496-.316-3.266-.953a6.648 6.648 0 0 1-1.828-2.39 79.016 79.016 0 0 1-3.219-3.204c-1.18-1.25-1.828-2.39-1.953-3.422-.062-1.718.223-4.093.86-7.125.644-3.039 1.57-6.191 2.78-9.453 0-.125-.015-.265-.046-.422a2.39 2.39 0 0 1-.047-.437l.39-1.625c.126-.645.266-1.285.423-1.922a12.23 12.23 0 0 1 .53-1.625v.094c.384-1.282.688-2.586.907-3.922.227-1.344.469-2.656.719-3.938.133-.707.25-1.394.344-2.062.093-.664.203-1.352.328-2.063l-5.266-.578c-4.094-.445-7.672-1.242-10.734-2.39-3.07-1.145-4.766-2.489-5.078-4.032 0-.507.226-.765.672-.765.125-.125.25-.188.375-.188.199 0 .421.133.671.39l1.344-.202c1.469.574 3.262 1.12 5.375 1.64 2.106.512 4.531.891 7.281 1.141l3.344.187c.52 0 1.082.024 1.688.063.601.031 1.16.078 1.672.14l2.296-6.234v.094c.196-.832.422-1.504.672-2.016.133-.312.266-.66.39-1.047.126-.382.22-.703.282-.953.195-1.093.36-2.21.485-3.359.125-1.156.218-2.242.28-3.266.196-1.976.438-3.687.72-5.125.289-1.437.82-2.156 1.593-2.156.57 0 1.383.309 2.438.922 1.05.605 2.039 1.465 2.969 2.578.925 1.117 1.484 2.508 1.671 4.172v1.625l.579 1.828c.132.512.28 1.04.437 1.578.156.543.363.906.625 1.094Zm0 0" fill="#fff"/></svg>